<mxfile host="65bd71144e">
    <diagram id="FfK5qRKSxhjQUm6GkQd4" name="Page-1">
        <mxGraphModel dx="1391" dy="945" grid="1" gridSize="10" guides="1" tooltips="1" connect="1" arrows="1" fold="1" page="1" pageScale="1" pageWidth="3300" pageHeight="2339" math="0" shadow="0">
            <root>
                <mxCell id="0"/>
                <mxCell id="1" parent="0"/>
                <mxCell id="22" value="" style="rounded=0;whiteSpace=wrap;html=1;fillColor=none;strokeColor=#33FF33;dashed=1;strokeWidth=3;sketch=1;" vertex="1" parent="1">
                    <mxGeometry x="1590" y="620" width="360" height="670" as="geometry"/>
                </mxCell>
                <mxCell id="45" value="" style="rounded=0;whiteSpace=wrap;html=1;fillColor=none;dashed=1;strokeWidth=3;glass=1;sketch=1;strokeColor=#FF8000;" vertex="1" parent="1">
                    <mxGeometry x="1950" y="760" width="380" height="330" as="geometry"/>
                </mxCell>
                <mxCell id="43" value="" style="rounded=0;whiteSpace=wrap;html=1;fillColor=none;dashed=1;strokeWidth=3;sketch=1;strokeColor=#9933FF;" vertex="1" parent="1">
                    <mxGeometry x="1590" y="1290" width="360" height="220" as="geometry"/>
                </mxCell>
                <mxCell id="19" value="" style="rounded=0;whiteSpace=wrap;html=1;fillColor=none;dashed=1;strokeWidth=3;glass=1;sketch=1;strokeColor=#FF8000;" vertex="1" parent="1">
                    <mxGeometry x="1210" y="760" width="380" height="330" as="geometry"/>
                </mxCell>
                <mxCell id="13" style="edgeStyle=orthogonalEdgeStyle;rounded=0;orthogonalLoop=1;jettySize=auto;html=1;entryX=0;entryY=0.5;entryDx=0;entryDy=0;startArrow=classicThin;startFill=1;strokeWidth=3;fillColor=#1ba1e2;strokeColor=#006EAF;" parent="1" source="2" target="3" edge="1">
                    <mxGeometry relative="1" as="geometry"/>
                </mxCell>
                <mxCell id="2" value="Fuel Tank 1&lt;br&gt;(Integral)" style="rounded=1;whiteSpace=wrap;html=1;fillColor=#1ba1e2;strokeColor=#006EAF;fontColor=#ffffff;sketch=1;" parent="1" vertex="1">
                    <mxGeometry x="1350" y="880" width="200" height="100" as="geometry"/>
                </mxCell>
                <mxCell id="16" style="edgeStyle=orthogonalEdgeStyle;rounded=0;orthogonalLoop=1;jettySize=auto;html=1;entryX=0;entryY=0.5;entryDx=0;entryDy=0;startArrow=classicThin;startFill=1;strokeWidth=3;fillColor=#1ba1e2;strokeColor=#006EAF;" edge="1" parent="1" source="3" target="4">
                    <mxGeometry relative="1" as="geometry"/>
                </mxCell>
                <mxCell id="50" style="edgeStyle=orthogonalEdgeStyle;orthogonalLoop=1;jettySize=auto;html=1;entryX=1;entryY=0.5;entryDx=0;entryDy=0;fontSize=16;startArrow=classicThin;startFill=1;strokeWidth=3;fillColor=#1ba1e2;strokeColor=#006EAF;rounded=1;" edge="1" parent="1" source="3" target="46">
                    <mxGeometry relative="1" as="geometry">
                        <Array as="points">
                            <mxPoint x="1770" y="1210"/>
                        </Array>
                    </mxGeometry>
                </mxCell>
                <mxCell id="51" style="edgeStyle=orthogonalEdgeStyle;rounded=1;orthogonalLoop=1;jettySize=auto;html=1;entryX=0;entryY=0.5;entryDx=0;entryDy=0;fontSize=16;startArrow=classicThin;startFill=1;strokeWidth=3;fillColor=#1ba1e2;strokeColor=#006EAF;" edge="1" parent="1" source="3" target="47">
                    <mxGeometry relative="1" as="geometry">
                        <Array as="points">
                            <mxPoint x="1770" y="1210"/>
                        </Array>
                    </mxGeometry>
                </mxCell>
                <mxCell id="3" value="Fuel Tank 2&lt;br&gt;(Self-sealing)" style="rounded=1;whiteSpace=wrap;html=1;fillColor=#1ba1e2;strokeColor=#006EAF;fontColor=#ffffff;sketch=1;" parent="1" vertex="1">
                    <mxGeometry x="1720" y="880" width="100" height="100" as="geometry"/>
                </mxCell>
                <mxCell id="4" value="Fuel Tank 3&lt;br&gt;(Integral)" style="rounded=1;whiteSpace=wrap;html=1;fillColor=#1ba1e2;strokeColor=#006EAF;fontColor=#ffffff;sketch=1;" parent="1" vertex="1">
                    <mxGeometry x="1990" y="880" width="200" height="100" as="geometry"/>
                </mxCell>
                <mxCell id="7" value="Cross-feed" style="text;html=1;align=center;verticalAlign=middle;resizable=0;points=[];autosize=1;strokeColor=none;" parent="1" vertex="1">
                    <mxGeometry x="1600" y="960" width="70" height="20" as="geometry"/>
                </mxCell>
                <mxCell id="12" value="" style="shape=mxgraph.pid.fittings.self-operating_release_valve;html=1;pointerEvents=1;align=center;verticalLabelPosition=bottom;verticalAlign=top;dashed=0;rotation=-45;" parent="1" vertex="1">
                    <mxGeometry x="1620" y="915" width="30" height="30" as="geometry"/>
                </mxCell>
                <mxCell id="14" value="Cross-feed" style="text;html=1;align=center;verticalAlign=middle;resizable=0;points=[];autosize=1;strokeColor=none;" vertex="1" parent="1">
                    <mxGeometry x="1870" y="960" width="70" height="20" as="geometry"/>
                </mxCell>
                <mxCell id="15" value="" style="shape=mxgraph.pid.fittings.self-operating_release_valve;html=1;pointerEvents=1;align=center;verticalLabelPosition=bottom;verticalAlign=top;dashed=0;rotation=-45;" vertex="1" parent="1">
                    <mxGeometry x="1890" y="915" width="30" height="30" as="geometry"/>
                </mxCell>
                <mxCell id="25" value="Port Wing" style="text;html=1;align=center;verticalAlign=middle;resizable=0;points=[];autosize=1;strokeColor=none;fontSize=16;" vertex="1" parent="1">
                    <mxGeometry x="1230" y="780" width="90" height="20" as="geometry"/>
                </mxCell>
                <mxCell id="26" value="Starboard Wing" style="text;html=1;align=center;verticalAlign=middle;resizable=0;points=[];autosize=1;strokeColor=none;fontSize=16;" vertex="1" parent="1">
                    <mxGeometry x="1970" y="780" width="130" height="20" as="geometry"/>
                </mxCell>
                <mxCell id="27" value="Fuselage" style="text;html=1;align=center;verticalAlign=middle;resizable=0;points=[];autosize=1;strokeColor=none;fontSize=16;" vertex="1" parent="1">
                    <mxGeometry x="1610" y="635" width="80" height="20" as="geometry"/>
                </mxCell>
                <mxCell id="28" style="edgeStyle=orthogonalEdgeStyle;rounded=0;orthogonalLoop=1;jettySize=auto;html=1;entryX=0;entryY=0.5;entryDx=0;entryDy=0;startArrow=classicThin;startFill=1;strokeWidth=3;fillColor=#0050ef;strokeColor=#001DBC;" edge="1" parent="1">
                    <mxGeometry relative="1" as="geometry">
                        <mxPoint x="1475" y="1729" as="sourcePoint"/>
                        <mxPoint x="1645" y="1729" as="targetPoint"/>
                    </mxGeometry>
                </mxCell>
                <mxCell id="29" value="Fuel Lines" style="text;html=1;align=center;verticalAlign=middle;resizable=0;points=[];autosize=1;strokeColor=none;fontSize=16;" vertex="1" parent="1">
                    <mxGeometry x="1515" y="1739" width="90" height="20" as="geometry"/>
                </mxCell>
                <mxCell id="31" style="edgeStyle=orthogonalEdgeStyle;rounded=0;orthogonalLoop=1;jettySize=auto;html=1;entryX=0;entryY=0.5;entryDx=0;entryDy=0;startArrow=classicThin;startFill=1;strokeWidth=3;fillColor=#a20025;strokeColor=#6F0000;" edge="1" parent="1">
                    <mxGeometry relative="1" as="geometry">
                        <mxPoint x="1685" y="1729" as="sourcePoint"/>
                        <mxPoint x="1855" y="1729" as="targetPoint"/>
                    </mxGeometry>
                </mxCell>
                <mxCell id="32" value="Hydraulic Lines" style="text;html=1;align=center;verticalAlign=middle;resizable=0;points=[];autosize=1;strokeColor=none;fontSize=16;" vertex="1" parent="1">
                    <mxGeometry x="1705" y="1739" width="130" height="20" as="geometry"/>
                </mxCell>
                <mxCell id="33" style="edgeStyle=orthogonalEdgeStyle;rounded=0;orthogonalLoop=1;jettySize=auto;html=1;entryX=0;entryY=0.5;entryDx=0;entryDy=0;startArrow=classicThin;startFill=1;strokeWidth=3;fillColor=#d80073;strokeColor=#A50040;" edge="1" parent="1">
                    <mxGeometry relative="1" as="geometry">
                        <mxPoint x="1895" y="1729" as="sourcePoint"/>
                        <mxPoint x="2065" y="1729" as="targetPoint"/>
                    </mxGeometry>
                </mxCell>
                <mxCell id="34" value="Electrical Lines" style="text;html=1;align=center;verticalAlign=middle;resizable=0;points=[];autosize=1;strokeColor=none;fontSize=16;" vertex="1" parent="1">
                    <mxGeometry x="1920" y="1739" width="120" height="20" as="geometry"/>
                </mxCell>
                <mxCell id="35" value="" style="rounded=0;whiteSpace=wrap;html=1;fillColor=none;dashed=1;strokeWidth=3;sketch=1;strokeColor=#9933FF;" vertex="1" parent="1">
                    <mxGeometry x="1590" y="330" width="360" height="290" as="geometry"/>
                </mxCell>
                <mxCell id="36" value="Flight Deck" style="text;html=1;align=center;verticalAlign=middle;resizable=0;points=[];autosize=1;strokeColor=none;fontSize=16;" vertex="1" parent="1">
                    <mxGeometry x="1610" y="350" width="100" height="20" as="geometry"/>
                </mxCell>
                <mxCell id="37" value="Fuel Subsystem Component" style="rounded=1;whiteSpace=wrap;html=1;fillColor=#0050ef;strokeColor=#001DBC;fontColor=#ffffff;sketch=1;" vertex="1" parent="1">
                    <mxGeometry x="1510" y="1599" width="100" height="100" as="geometry"/>
                </mxCell>
                <mxCell id="38" value="Hydraulic Subsystem Component" style="rounded=1;whiteSpace=wrap;html=1;fillColor=#a20025;fontColor=#ffffff;strokeColor=#6F0000;sketch=1;" vertex="1" parent="1">
                    <mxGeometry x="1720" y="1599" width="100" height="100" as="geometry"/>
                </mxCell>
                <mxCell id="39" value="Avionics + Control Component" style="rounded=1;whiteSpace=wrap;html=1;fillColor=#d80073;fontColor=#ffffff;strokeColor=#A50040;sketch=1;" vertex="1" parent="1">
                    <mxGeometry x="1930" y="1599" width="100" height="100" as="geometry"/>
                </mxCell>
                <mxCell id="40" style="edgeStyle=orthogonalEdgeStyle;rounded=0;orthogonalLoop=1;jettySize=auto;html=1;entryX=0;entryY=0.5;entryDx=0;entryDy=0;startArrow=classicThin;startFill=1;strokeWidth=3;fillColor=#1ba1e2;strokeColor=#006EAF;" edge="1" parent="1">
                    <mxGeometry relative="1" as="geometry">
                        <mxPoint x="1685" y="1929" as="sourcePoint"/>
                        <mxPoint x="1855" y="1929" as="targetPoint"/>
                    </mxGeometry>
                </mxCell>
                <mxCell id="41" value="Bleed Lines" style="text;html=1;align=center;verticalAlign=middle;resizable=0;points=[];autosize=1;strokeColor=none;fontSize=16;" vertex="1" parent="1">
                    <mxGeometry x="1720" y="1939" width="100" height="20" as="geometry"/>
                </mxCell>
                <mxCell id="42" value="Pneumatic Subsystem Component" style="rounded=1;whiteSpace=wrap;html=1;fillColor=#1ba1e2;fontColor=#ffffff;strokeColor=#006EAF;sketch=1;" vertex="1" parent="1">
                    <mxGeometry x="1720" y="1799" width="100" height="100" as="geometry"/>
                </mxCell>
                <mxCell id="44" value="Tail" style="text;html=1;align=center;verticalAlign=middle;resizable=0;points=[];autosize=1;strokeColor=none;fontSize=16;" vertex="1" parent="1">
                    <mxGeometry x="1610" y="1310" width="40" height="20" as="geometry"/>
                </mxCell>
                <mxCell id="46" value="" style="rounded=0;whiteSpace=wrap;html=1;dashed=1;strokeWidth=3;glass=0;sketch=1;fontColor=#ffffff;strokeColor=#432D57;fillStyle=auto;fillColor=#76608a;" vertex="1" parent="1">
                    <mxGeometry x="1390" y="1130" width="200" height="160" as="geometry"/>
                </mxCell>
                <mxCell id="47" value="" style="rounded=0;whiteSpace=wrap;html=1;fillColor=#76608a;dashed=1;strokeWidth=3;glass=0;sketch=1;strokeColor=#432D57;fontColor=#ffffff;" vertex="1" parent="1">
                    <mxGeometry x="1950" y="1130" width="200" height="160" as="geometry"/>
                </mxCell>
                <mxCell id="48" value="Port Engine" style="text;html=1;align=center;verticalAlign=middle;resizable=0;points=[];autosize=1;strokeColor=none;fontSize=16;" vertex="1" parent="1">
                    <mxGeometry x="1400" y="1140" width="100" height="20" as="geometry"/>
                </mxCell>
                <mxCell id="49" value="Starboard Engine" style="text;html=1;align=center;verticalAlign=middle;resizable=0;points=[];autosize=1;strokeColor=none;fontSize=16;" vertex="1" parent="1">
                    <mxGeometry x="1970" y="1140" width="140" height="20" as="geometry"/>
                </mxCell>
            </root>
        </mxGraphModel>
    </diagram>
</mxfile>